<svg width="160" height="41" viewBox="0 0 160 41" fill="none" xmlns="http://www.w3.org/2000/svg">
<path d="M58.856 15.456H53.288V12.912H67.568V15.456H61.976V30H58.856V15.456ZM74.1209 17.592C74.5849 17.592 74.9849 17.656 75.3209 17.784L75.2969 20.52C74.7849 20.312 74.2569 20.208 73.7129 20.208C72.6889 20.208 71.9049 20.504 71.3609 21.096C70.8329 21.688 70.5689 22.472 70.5689 23.448V30H67.5929V21.312C67.5929 20.032 67.5289 18.888 67.4009 17.88H70.2089L70.4489 20.016C70.7529 19.232 71.2329 18.632 71.8889 18.216C72.5449 17.8 73.2889 17.592 74.1209 17.592ZM88.349 17.88V30H85.397V28.056C85.029 28.728 84.501 29.256 83.813 29.64C83.125 30.008 82.341 30.192 81.461 30.192C80.405 30.192 79.469 29.936 78.653 29.424C77.837 28.912 77.205 28.184 76.757 27.24C76.309 26.296 76.085 25.2 76.085 23.952C76.085 22.704 76.309 21.6 76.757 20.64C77.221 19.664 77.861 18.912 78.677 18.384C79.493 17.84 80.421 17.568 81.461 17.568C82.341 17.568 83.125 17.76 83.813 18.144C84.501 18.512 85.029 19.032 85.397 19.704V17.88H88.349ZM82.277 27.84C83.269 27.84 84.037 27.496 84.581 26.808C85.125 26.12 85.397 25.152 85.397 23.904C85.397 22.624 85.125 21.64 84.581 20.952C84.037 20.264 83.261 19.92 82.253 19.92C81.261 19.92 80.485 20.28 79.925 21C79.381 21.704 79.109 22.688 79.109 23.952C79.109 25.2 79.381 26.16 79.925 26.832C80.485 27.504 81.269 27.84 82.277 27.84ZM97.3524 14.712C96.0564 14.712 95.4084 15.424 95.4084 16.848V17.88H98.1204V20.136H95.4084V30H92.4084V20.136H90.1044V17.88H92.4084V16.704C92.4084 15.264 92.7684 14.16 93.4884 13.392C94.2244 12.608 95.2724 12.216 96.6324 12.216C97.3844 12.216 98.0164 12.312 98.5284 12.504V14.88C98.0804 14.768 97.6884 14.712 97.3524 14.712ZM111.904 17.88V30H108.952V28.056C108.584 28.728 108.056 29.256 107.368 29.64C106.68 30.008 105.896 30.192 105.016 30.192C103.96 30.192 103.024 29.936 102.208 29.424C101.392 28.912 100.76 28.184 100.312 27.24C99.8637 26.296 99.6397 25.2 99.6397 23.952C99.6397 22.704 99.8637 21.6 100.312 20.64C100.776 19.664 101.416 18.912 102.232 18.384C103.048 17.84 103.976 17.568 105.016 17.568C105.896 17.568 106.68 17.76 107.368 18.144C108.056 18.512 108.584 19.032 108.952 19.704V17.88H111.904ZM105.832 27.84C106.824 27.84 107.592 27.496 108.136 26.808C108.68 26.12 108.952 25.152 108.952 23.904C108.952 22.624 108.68 21.64 108.136 20.952C107.592 20.264 106.816 19.92 105.808 19.92C104.816 19.92 104.04 20.28 103.48 21C102.936 21.704 102.664 22.688 102.664 23.952C102.664 25.2 102.936 26.16 103.48 26.832C104.04 27.504 104.824 27.84 105.832 27.84ZM115.171 12.336H118.147V30H115.171V12.336ZM133.141 17.88V29.616C133.141 31.504 132.621 32.936 131.581 33.912C130.541 34.888 129.013 35.376 126.997 35.376C125.125 35.376 123.477 34.984 122.053 34.2L122.533 31.92C124.005 32.688 125.469 33.072 126.925 33.072C129.085 33.072 130.165 32 130.165 29.856V27.456C129.797 28.112 129.261 28.648 128.557 29.064C127.853 29.464 127.061 29.664 126.181 29.664C125.125 29.664 124.181 29.416 123.349 28.92C122.533 28.408 121.893 27.696 121.429 26.784C120.981 25.856 120.757 24.8 120.757 23.616C120.757 22.432 120.981 21.384 121.429 20.472C121.893 19.544 122.533 18.832 123.349 18.336C124.181 17.824 125.125 17.568 126.181 17.568C127.077 17.568 127.869 17.76 128.557 18.144C129.261 18.512 129.797 19.032 130.165 19.704V17.88H133.141ZM126.973 27.312C127.965 27.312 128.741 26.984 129.301 26.328C129.877 25.672 130.165 24.768 130.165 23.616C130.165 22.464 129.885 21.56 129.325 20.904C128.765 20.248 127.981 19.92 126.973 19.92C125.981 19.92 125.197 20.248 124.621 20.904C124.061 21.56 123.781 22.464 123.781 23.616C123.781 24.768 124.061 25.672 124.621 26.328C125.197 26.984 125.981 27.312 126.973 27.312ZM147.974 17.88V30H145.022V28.056C144.654 28.728 144.126 29.256 143.438 29.64C142.75 30.008 141.966 30.192 141.086 30.192C140.03 30.192 139.094 29.936 138.278 29.424C137.462 28.912 136.83 28.184 136.382 27.24C135.934 26.296 135.71 25.2 135.71 23.952C135.71 22.704 135.934 21.6 136.382 20.64C136.846 19.664 137.486 18.912 138.302 18.384C139.118 17.84 140.046 17.568 141.086 17.568C141.966 17.568 142.75 17.76 143.438 18.144C144.126 18.512 144.654 19.032 145.022 19.704V17.88H147.974ZM141.902 27.84C142.894 27.84 143.662 27.496 144.206 26.808C144.75 26.12 145.022 25.152 145.022 23.904C145.022 22.624 144.75 21.64 144.206 20.952C143.662 20.264 142.886 19.92 141.878 19.92C140.886 19.92 140.11 20.28 139.55 21C139.006 21.704 138.734 22.688 138.734 23.952C138.734 25.2 139.006 26.16 139.55 26.832C140.11 27.504 140.894 27.84 141.902 27.84ZM157.769 17.592C158.233 17.592 158.633 17.656 158.969 17.784L158.945 20.52C158.433 20.312 157.905 20.208 157.361 20.208C156.337 20.208 155.553 20.504 155.009 21.096C154.481 21.688 154.217 22.472 154.217 23.448V30H151.241V21.312C151.241 20.032 151.177 18.888 151.049 17.88H153.857L154.097 20.016C154.401 19.232 154.881 18.632 155.537 18.216C156.193 17.8 156.937 17.592 157.769 17.592Z" fill="#233348"/>
<path d="M58.856 15.456H59.856V14.456H58.856V15.456ZM53.288 15.456H52.288V16.456H53.288V15.456ZM53.288 12.912V11.912H52.288V12.912H53.288ZM67.568 12.912H68.568V11.912H67.568V12.912ZM67.568 15.456V16.456H68.568V15.456H67.568ZM61.976 15.456V14.456H60.976V15.456H61.976ZM61.976 30V31H62.976V30H61.976ZM58.856 30H57.856V31H58.856V30ZM58.856 14.456H53.288V16.456H58.856V14.456ZM54.288 15.456V12.912H52.288V15.456H54.288ZM53.288 13.912H67.568V11.912H53.288V13.912ZM66.568 12.912V15.456H68.568V12.912H66.568ZM67.568 14.456H61.976V16.456H67.568V14.456ZM60.976 15.456V30H62.976V15.456H60.976ZM61.976 29H58.856V31H61.976V29ZM59.856 30V15.456H57.856V30H59.856ZM75.3209 17.784L76.3209 17.7928L76.327 17.0972L75.6769 16.8495L75.3209 17.784ZM75.2969 20.52L74.9206 21.4465L76.284 22.0004L76.2969 20.5288L75.2969 20.52ZM71.3609 21.096L70.6246 20.4194L70.6196 20.4248L70.6146 20.4304L71.3609 21.096ZM70.5689 30V31H71.5689V30H70.5689ZM67.5929 30H66.5929V31H67.5929V30ZM67.4009 17.88V16.88H66.2659L66.4089 18.006L67.4009 17.88ZM70.2089 17.88L71.2027 17.7683L71.1029 16.88H70.2089V17.88ZM70.4489 20.016L69.4552 20.1277L71.3813 20.3775L70.4489 20.016ZM71.8889 18.216L71.3534 17.3715L71.3534 17.3715L71.8889 18.216ZM74.1209 18.592C74.4969 18.592 74.7703 18.6443 74.9649 18.7185L75.6769 16.8495C75.1996 16.6677 74.673 16.592 74.1209 16.592V18.592ZM74.321 17.7752L74.297 20.5112L76.2969 20.5288L76.3209 17.7928L74.321 17.7752ZM75.6733 19.5935C75.0437 19.3378 74.388 19.208 73.7129 19.208V21.208C74.1258 21.208 74.5262 21.2862 74.9206 21.4465L75.6733 19.5935ZM73.7129 19.208C72.4905 19.208 71.4069 19.5681 70.6246 20.4194L72.0973 21.7726C72.403 21.4399 72.8873 21.208 73.7129 21.208V19.208ZM70.6146 20.4304C69.8878 21.2453 69.5689 22.2855 69.5689 23.448H71.5689C71.5689 22.6585 71.7781 22.1307 72.1072 21.7616L70.6146 20.4304ZM69.5689 23.448V30H71.5689V23.448H69.5689ZM70.5689 29H67.5929V31H70.5689V29ZM68.5929 30V21.312H66.5929V30H68.5929ZM68.5929 21.312C68.5929 20.0002 68.5274 18.8129 68.393 17.754L66.4089 18.006C66.5304 18.9631 66.5929 20.0638 66.5929 21.312H68.5929ZM67.4009 18.88H70.2089V16.88H67.4009V18.88ZM69.2152 17.9917L69.4552 20.1277L71.4427 19.9043L71.2027 17.7683L69.2152 17.9917ZM71.3813 20.3775C71.6148 19.7754 71.9641 19.3524 72.4245 19.0605L71.3534 17.3715C70.5018 17.9115 69.8911 18.6886 69.5166 19.6545L71.3813 20.3775ZM72.4245 19.0605C72.9088 18.7534 73.4645 18.592 74.1209 18.592V16.592C73.1134 16.592 72.181 16.8466 71.3534 17.3715L72.4245 19.0605ZM88.349 17.88H89.349V16.88H88.349V17.88ZM88.349 30V31H89.349V30H88.349ZM85.397 30H84.397V31H85.397V30ZM85.397 28.056H86.397L84.5199 27.5757L85.397 28.056ZM83.813 29.64L84.2847 30.5218L84.2925 30.5176L84.3004 30.5132L83.813 29.64ZM78.653 29.424L78.1215 30.2711L78.1215 30.2711L78.653 29.424ZM76.757 27.24L77.6604 26.8113L76.757 27.24ZM76.757 20.64L75.8538 20.2106L75.8508 20.2171L76.757 20.64ZM78.677 18.384L79.2203 19.2236L79.2317 19.216L78.677 18.384ZM83.813 18.144L83.3256 19.0172L83.3335 19.0216L83.3413 19.0258L83.813 18.144ZM85.397 19.704L84.5199 20.1843L86.397 19.704H85.397ZM85.397 17.88V16.88H84.397V17.88H85.397ZM84.581 26.808L85.3654 27.4282L85.3654 27.4282L84.581 26.808ZM84.581 20.952L83.7966 21.5722L83.7966 21.5722L84.581 20.952ZM79.925 21L79.1356 20.3861L79.1337 20.3886L79.925 21ZM79.925 26.832L79.1478 27.4612L79.1522 27.4667L79.1568 27.4722L79.925 26.832ZM87.349 17.88V30H89.349V17.88H87.349ZM88.349 29H85.397V31H88.349V29ZM86.397 30V28.056H84.397V30H86.397ZM84.5199 27.5757C84.2449 28.0778 83.8543 28.4718 83.3256 28.7668L84.3004 30.5132C85.1477 30.0402 85.8131 29.3782 86.2741 28.5363L84.5199 27.5757ZM83.3413 28.7582C82.8161 29.0391 82.1978 29.192 81.461 29.192V31.192C82.4842 31.192 83.4339 30.9769 84.2847 30.5218L83.3413 28.7582ZM81.461 29.192C80.5743 29.192 79.8261 28.9795 79.1845 28.5769L78.1215 30.2711C79.1119 30.8925 80.2357 31.192 81.461 31.192V29.192ZM79.1845 28.5769C78.5434 28.1747 78.034 27.5984 77.6604 26.8113L75.8536 27.6687C76.376 28.7696 77.1306 29.6493 78.1215 30.2711L79.1845 28.5769ZM77.6604 26.8113C77.2872 26.0248 77.085 25.0802 77.085 23.952H75.085C75.085 25.3198 75.3308 26.5672 75.8536 27.6687L77.6604 26.8113ZM77.085 23.952C77.085 22.8243 77.287 21.8689 77.6632 21.0629L75.8508 20.2171C75.331 21.3311 75.085 22.5837 75.085 23.952H77.085ZM77.6601 21.0694C78.0537 20.2415 78.5769 19.6398 79.2203 19.2236L78.1337 17.5444C77.1451 18.1842 76.3883 19.0865 75.8539 20.2106L77.6601 21.0694ZM79.2317 19.216C79.8733 18.7883 80.6059 18.568 81.461 18.568V16.568C80.2361 16.568 79.1127 16.8917 78.1223 17.5519L79.2317 19.216ZM81.461 18.568C82.1907 18.568 82.8034 18.7257 83.3256 19.0172L84.3004 17.2708C83.4466 16.7943 82.4913 16.568 81.461 16.568V18.568ZM83.3413 19.0258C83.8614 19.304 84.247 19.686 84.5199 20.1843L86.2741 19.2237C85.811 18.378 85.1406 17.72 84.2847 17.2622L83.3413 19.0258ZM86.397 19.704V17.88H84.397V19.704H86.397ZM85.397 18.88H88.349V16.88H85.397V18.88ZM82.277 28.84C83.5294 28.84 84.6053 28.3896 85.3654 27.4282L83.7966 26.1878C83.4687 26.6024 83.0086 26.84 82.277 26.84V28.84ZM85.3654 27.4282C86.0974 26.5024 86.397 25.2842 86.397 23.904H84.397C84.397 25.0198 84.1526 25.7376 83.7966 26.1878L85.3654 27.4282ZM86.397 23.904C86.397 22.4989 86.1005 21.2614 85.3654 20.3318L83.7966 21.5722C84.1495 22.0186 84.397 22.7491 84.397 23.904H86.397ZM85.3654 20.3318C84.602 19.3662 83.5153 18.92 82.253 18.92V20.92C83.0067 20.92 83.472 21.1618 83.7966 21.5722L85.3654 20.3318ZM82.253 18.92C80.9835 18.92 79.9034 19.3989 79.1356 20.3861L80.7144 21.6139C81.0666 21.1611 81.5385 20.92 82.253 20.92V18.92ZM79.1337 20.3886C78.4078 21.3279 78.109 22.5574 78.109 23.952H80.109C80.109 22.8186 80.3542 22.0801 80.7163 21.6114L79.1337 20.3886ZM78.109 23.952C78.109 25.3301 78.4077 26.5471 79.1478 27.4612L80.7022 26.2028C80.3543 25.7729 80.109 25.0699 80.109 23.952H78.109ZM79.1568 27.4722C79.9369 28.4083 81.0227 28.84 82.277 28.84V26.84C81.5153 26.84 81.0331 26.5997 80.6932 26.1918L79.1568 27.4722ZM95.4084 17.88H94.4084V18.88H95.4084V17.88ZM98.1204 17.88H99.1204V16.88H98.1204V17.88ZM98.1204 20.136V21.136H99.1204V20.136H98.1204ZM95.4084 20.136V19.136H94.4084V20.136H95.4084ZM95.4084 30V31H96.4084V30H95.4084ZM92.4084 30H91.4084V31H92.4084V30ZM92.4084 20.136H93.4084V19.136H92.4084V20.136ZM90.1044 20.136H89.1044V21.136H90.1044V20.136ZM90.1044 17.88V16.88H89.1044V17.88H90.1044ZM92.4084 17.88V18.88H93.4084V17.88H92.4084ZM93.4884 13.392L92.7593 12.7076L92.7588 12.7081L93.4884 13.392ZM98.5284 12.504H99.5284V11.811L98.8795 11.5677L98.5284 12.504ZM98.5284 14.88L98.2858 15.8501L99.5284 16.1608V14.88H98.5284ZM97.3524 13.712C96.5247 13.712 95.7275 13.9437 95.1548 14.5729C94.5984 15.1843 94.4084 16.0039 94.4084 16.848H96.4084C96.4084 16.2681 96.5423 16.0197 96.6339 15.9191C96.7093 15.8363 96.8841 15.712 97.3524 15.712V13.712ZM94.4084 16.848V17.88H96.4084V16.848H94.4084ZM95.4084 18.88H98.1204V16.88H95.4084V18.88ZM97.1204 17.88V20.136H99.1204V17.88H97.1204ZM98.1204 19.136H95.4084V21.136H98.1204V19.136ZM94.4084 20.136V30H96.4084V20.136H94.4084ZM95.4084 29H92.4084V31H95.4084V29ZM93.4084 30V20.136H91.4084V30H93.4084ZM92.4084 19.136H90.1044V21.136H92.4084V19.136ZM91.1044 20.136V17.88H89.1044V20.136H91.1044ZM90.1044 18.88H92.4084V16.88H90.1044V18.88ZM93.4084 17.88V16.704H91.4084V17.88H93.4084ZM93.4084 16.704C93.4084 15.4233 93.7271 14.5994 94.2179 14.0759L92.7588 12.7081C91.8096 13.7206 91.4084 15.1047 91.4084 16.704H93.4084ZM94.2174 14.0764C94.7171 13.5442 95.4709 13.216 96.6324 13.216V11.216C95.0739 11.216 93.7316 11.6718 92.7593 12.7076L94.2174 14.0764ZM96.6324 13.216C97.3063 13.216 97.811 13.303 98.1773 13.4403L98.8795 11.5677C98.2218 11.321 97.4624 11.216 96.6324 11.216V13.216ZM97.5284 12.504V14.88H99.5284V12.504H97.5284ZM98.7709 13.9099C98.2709 13.7848 97.7942 13.712 97.3524 13.712V15.712C97.5826 15.712 97.8899 15.7512 98.2858 15.8501L98.7709 13.9099ZM111.904 17.88H112.904V16.88H111.904V17.88ZM111.904 30V31H112.904V30H111.904ZM108.952 30H107.952V31H108.952V30ZM108.952 28.056H109.952L108.075 27.5757L108.952 28.056ZM107.368 29.64L107.839 30.5218L107.847 30.5176L107.855 30.5132L107.368 29.64ZM102.208 29.424L101.676 30.2711L101.676 30.2711L102.208 29.424ZM100.312 27.24L101.215 26.8113L100.312 27.24ZM100.312 20.64L99.4085 20.2106L99.4055 20.2171L100.312 20.64ZM102.232 18.384L102.775 19.2236L102.786 19.216L102.232 18.384ZM107.368 18.144L106.88 19.0172L106.888 19.0216L106.896 19.0258L107.368 18.144ZM108.952 19.704L108.075 20.1843L109.952 19.704H108.952ZM108.952 17.88V16.88H107.952V17.88H108.952ZM108.136 26.808L108.92 27.4282L108.92 27.4282L108.136 26.808ZM108.136 20.952L107.351 21.5722L107.351 21.5722L108.136 20.952ZM103.48 21L102.69 20.3861L102.688 20.3886L103.48 21ZM103.48 26.832L102.702 27.4612L102.707 27.4667L102.711 27.4722L103.48 26.832ZM110.904 17.88V30H112.904V17.88H110.904ZM111.904 29H108.952V31H111.904V29ZM109.952 30V28.056H107.952V30H109.952ZM108.075 27.5757C107.8 28.0778 107.409 28.4718 106.88 28.7668L107.855 30.5132C108.702 30.0402 109.368 29.3782 109.829 28.5363L108.075 27.5757ZM106.896 28.7582C106.371 29.0391 105.752 29.192 105.016 29.192V31.192C106.039 31.192 106.989 30.9769 107.839 30.5218L106.896 28.7582ZM105.016 29.192C104.129 29.192 103.381 28.9795 102.739 28.5769L101.676 30.2711C102.667 30.8925 103.79 31.192 105.016 31.192V29.192ZM102.739 28.5769C102.098 28.1747 101.589 27.5984 101.215 26.8113L99.4083 27.6687C99.9307 28.7696 100.685 29.6493 101.676 30.2711L102.739 28.5769ZM101.215 26.8113C100.842 26.0248 100.64 25.0802 100.64 23.952H98.6397C98.6397 25.3198 98.8855 26.5672 99.4083 27.6687L101.215 26.8113ZM100.64 23.952C100.64 22.8243 100.842 21.8689 101.218 21.0629L99.4055 20.2171C98.8857 21.3311 98.6397 22.5837 98.6397 23.952H100.64ZM101.215 21.0694C101.608 20.2415 102.132 19.6398 102.775 19.2236L101.688 17.5444C100.7 18.1842 99.943 19.0865 99.4086 20.2106L101.215 21.0694ZM102.786 19.216C103.428 18.7883 104.161 18.568 105.016 18.568V16.568C103.791 16.568 102.667 16.8917 101.677 17.5519L102.786 19.216ZM105.016 18.568C105.745 18.568 106.358 18.7257 106.88 19.0172L107.855 17.2708C107.001 16.7943 106.046 16.568 105.016 16.568V18.568ZM106.896 19.0258C107.416 19.304 107.802 19.686 108.075 20.1843L109.829 19.2237C109.366 18.378 108.695 17.72 107.839 17.2622L106.896 19.0258ZM109.952 19.704V17.88H107.952V19.704H109.952ZM108.952 18.88H111.904V16.88H108.952V18.88ZM105.832 28.84C107.084 28.84 108.16 28.3896 108.92 27.4282L107.351 26.1878C107.023 26.6024 106.563 26.84 105.832 26.84V28.84ZM108.92 27.4282C109.652 26.5024 109.952 25.2842 109.952 23.904H107.952C107.952 25.0198 107.707 25.7376 107.351 26.1878L108.92 27.4282ZM109.952 23.904C109.952 22.4989 109.655 21.2614 108.92 20.3318L107.351 21.5722C107.704 22.0186 107.952 22.7491 107.952 23.904H109.952ZM108.92 20.3318C108.157 19.3662 107.07 18.92 105.808 18.92V20.92C106.561 20.92 107.027 21.1618 107.351 21.5722L108.92 20.3318ZM105.808 18.92C104.538 18.92 103.458 19.3989 102.69 20.3861L104.269 21.6139C104.621 21.1611 105.093 20.92 105.808 20.92V18.92ZM102.688 20.3886C101.963 21.3279 101.664 22.5574 101.664 23.952H103.664C103.664 22.8186 103.909 22.0801 104.271 21.6114L102.688 20.3886ZM101.664 23.952C101.664 25.3301 101.962 26.5471 102.702 27.4612L104.257 26.2028C103.909 25.7729 103.664 25.0699 103.664 23.952H101.664ZM102.711 27.4722C103.492 28.4083 104.577 28.84 105.832 28.84V26.84C105.07 26.84 104.588 26.5997 104.248 26.1918L102.711 27.4722ZM115.171 12.336V11.336H114.171V12.336H115.171ZM118.147 12.336H119.147V11.336H118.147V12.336ZM118.147 30V31H119.147V30H118.147ZM115.171 30H114.171V31H115.171V30ZM115.171 13.336H118.147V11.336H115.171V13.336ZM117.147 12.336V30H119.147V12.336H117.147ZM118.147 29H115.171V31H118.147V29ZM116.171 30V12.336H114.171V30H116.171ZM133.141 17.88H134.141V16.88H133.141V17.88ZM131.581 33.912L130.897 33.1828L130.897 33.1828L131.581 33.912ZM122.053 34.2L121.074 33.994L120.922 34.7188L121.571 35.076L122.053 34.2ZM122.533 31.92L122.995 31.0334L121.826 30.4233L121.554 31.714L122.533 31.92ZM130.165 27.456H131.165V23.6295L129.293 26.9667L130.165 27.456ZM128.557 29.064L129.051 29.9335L129.058 29.9293L129.066 29.9249L128.557 29.064ZM123.349 28.92L122.817 29.7671L122.827 29.7731L122.837 29.7789L123.349 28.92ZM121.429 26.784L120.528 27.2187L120.533 27.2282L120.538 27.2375L121.429 26.784ZM121.429 20.472L120.534 20.0248L120.531 20.0311L121.429 20.472ZM123.349 18.336L123.868 19.1905L123.873 19.1877L123.349 18.336ZM128.557 18.144L128.07 19.0172L128.081 19.0239L128.094 19.0302L128.557 18.144ZM130.165 19.704L129.288 20.1843L131.165 19.704H130.165ZM130.165 17.88V16.88H129.165V17.88H130.165ZM129.301 26.328L128.549 25.6681L128.54 25.6787L129.301 26.328ZM129.325 20.904L128.564 21.5533L128.564 21.5533L129.325 20.904ZM124.621 20.904L123.869 20.2441L123.86 20.2547L124.621 20.904ZM124.621 26.328L123.86 26.9773L123.869 26.9878L124.621 26.328ZM132.141 17.88V29.616H134.141V17.88H132.141ZM132.141 29.616C132.141 31.3213 131.676 32.4515 130.897 33.1828L132.265 34.6412C133.566 33.4205 134.141 31.6867 134.141 29.616H132.141ZM130.897 33.1828C130.107 33.9241 128.864 34.376 126.997 34.376V36.376C129.162 36.376 130.975 35.8519 132.265 34.6412L130.897 33.1828ZM126.997 34.376C125.268 34.376 123.79 34.0151 122.535 33.324L121.571 35.076C123.163 35.9529 124.982 36.376 126.997 36.376V34.376ZM123.031 34.406L123.511 32.126L121.554 31.714L121.074 33.994L123.031 34.406ZM122.07 32.8066C123.665 33.6386 125.286 34.072 126.925 34.072V32.072C125.651 32.072 124.345 31.7374 122.995 31.0334L122.07 32.8066ZM126.925 34.072C128.157 34.072 129.265 33.7658 130.059 32.9777C130.855 32.1883 131.165 31.084 131.165 29.856H129.165C129.165 30.772 128.935 31.2757 128.65 31.5583C128.364 31.8422 127.853 32.072 126.925 32.072V34.072ZM131.165 29.856V27.456H129.165V29.856H131.165ZM129.293 26.9667C129.018 27.4557 128.614 27.8687 128.048 28.2031L129.066 29.9249C129.908 29.4273 130.575 28.7683 131.037 27.9453L129.293 26.9667ZM128.063 28.1945C127.522 28.5016 126.903 28.664 126.181 28.664V30.664C127.219 30.664 128.183 30.4264 129.051 29.9335L128.063 28.1945ZM126.181 28.664C125.288 28.664 124.524 28.4565 123.861 28.0611L122.837 29.7789C123.837 30.3755 124.961 30.664 126.181 30.664V28.664ZM123.88 28.0729C123.227 27.6632 122.707 27.0916 122.32 26.3305L120.538 27.2375C121.078 28.3004 121.838 29.1528 122.817 29.7671L123.88 28.0729ZM122.329 26.3493C121.956 25.5757 121.757 24.6719 121.757 23.616H119.757C119.757 24.9281 120.006 26.1363 120.528 27.2187L122.329 26.3493ZM121.757 23.616C121.757 22.5597 121.956 21.6667 122.326 20.9129L120.531 20.0311C120.006 21.1013 119.757 22.3043 119.757 23.616H121.757ZM122.323 20.9192C122.711 20.1444 123.227 19.5803 123.868 19.1905L122.829 17.4815C121.839 18.0837 121.075 18.9436 120.534 20.0248L122.323 20.9192ZM123.873 19.1877C124.535 18.7805 125.294 18.568 126.181 18.568V16.568C124.955 16.568 123.827 16.8675 122.825 17.4843L123.873 19.1877ZM126.181 18.568C126.93 18.568 127.55 18.7272 128.07 19.0172L129.044 17.2708C128.188 16.7928 127.224 16.568 126.181 16.568V18.568ZM128.094 19.0302C128.629 19.3103 129.018 19.6921 129.288 20.1843L131.042 19.2237C130.575 18.3719 129.892 17.7137 129.02 17.2578L128.094 19.0302ZM131.165 19.704V17.88H129.165V19.704H131.165ZM130.165 18.88H133.141V16.88H130.165V18.88ZM126.973 28.312C128.209 28.312 129.282 27.8905 130.061 26.9773L128.54 25.6787C128.2 26.0775 127.721 26.312 126.973 26.312V28.312ZM130.052 26.9878C130.834 26.0977 131.165 24.9319 131.165 23.616H129.165C129.165 24.6041 128.92 25.2463 128.549 25.6682L130.052 26.9878ZM131.165 23.616C131.165 22.3066 130.845 21.1449 130.085 20.2547L128.564 21.5533C128.924 21.9751 129.165 22.6214 129.165 23.616H131.165ZM130.085 20.2547C129.303 19.3377 128.219 18.92 126.973 18.92V20.92C127.743 20.92 128.227 21.1583 128.564 21.5533L130.085 20.2547ZM126.973 18.92C125.737 18.92 124.662 19.3412 123.869 20.2442L125.372 21.5638C125.731 21.1548 126.225 20.92 126.973 20.92V18.92ZM123.86 20.2547C123.1 21.1449 122.781 22.3066 122.781 23.616H124.781C124.781 22.6214 125.021 21.9751 125.381 21.5533L123.86 20.2547ZM122.781 23.616C122.781 24.9254 123.1 26.0871 123.86 26.9773L125.381 25.6787C125.021 25.2569 124.781 24.6106 124.781 23.616H122.781ZM123.869 26.9878C124.662 27.8908 125.737 28.312 126.973 28.312V26.312C126.225 26.312 125.731 26.0772 125.372 25.6682L123.869 26.9878ZM147.974 17.88H148.974V16.88H147.974V17.88ZM147.974 30V31H148.974V30H147.974ZM145.022 30H144.022V31H145.022V30ZM145.022 28.056H146.022L144.145 27.5757L145.022 28.056ZM143.438 29.64L143.91 30.5218L143.918 30.5176L143.925 30.5132L143.438 29.64ZM138.278 29.424L137.747 30.2711L137.747 30.2711L138.278 29.424ZM136.382 27.24L137.285 26.8113L136.382 27.24ZM136.382 20.64L135.479 20.2106L135.476 20.2171L136.382 20.64ZM138.302 18.384L138.845 19.2236L138.857 19.216L138.302 18.384ZM143.438 18.144L142.951 19.0172L142.958 19.0216L142.966 19.0258L143.438 18.144ZM145.022 19.704L144.145 20.1843L146.022 19.704H145.022ZM145.022 17.88V16.88H144.022V17.88H145.022ZM144.206 26.808L144.99 27.4282L144.99 27.4282L144.206 26.808ZM144.206 20.952L143.422 21.5722L143.422 21.5722L144.206 20.952ZM139.55 21L138.761 20.3861L138.759 20.3886L139.55 21ZM139.55 26.832L138.773 27.4612L138.777 27.4667L138.782 27.4722L139.55 26.832ZM146.974 17.88V30H148.974V17.88H146.974ZM147.974 29H145.022V31H147.974V29ZM146.022 30V28.056H144.022V30H146.022ZM144.145 27.5757C143.87 28.0778 143.479 28.4718 142.951 28.7668L143.925 30.5132C144.773 30.0402 145.438 29.3782 145.899 28.5363L144.145 27.5757ZM142.966 28.7582C142.441 29.0391 141.823 29.192 141.086 29.192V31.192C142.109 31.192 143.059 30.9769 143.91 30.5218L142.966 28.7582ZM141.086 29.192C140.199 29.192 139.451 28.9795 138.809 28.5769L137.747 30.2711C138.737 30.8925 139.861 31.192 141.086 31.192V29.192ZM138.809 28.5769C138.168 28.1747 137.659 27.5984 137.285 26.8113L135.479 27.6687C136.001 28.7696 136.756 29.6493 137.747 30.2711L138.809 28.5769ZM137.285 26.8113C136.912 26.0248 136.71 25.0802 136.71 23.952H134.71C134.71 25.3198 134.956 26.5672 135.479 27.6687L137.285 26.8113ZM136.71 23.952C136.71 22.8243 136.912 21.8689 137.288 21.0629L135.476 20.2171C134.956 21.3311 134.71 22.5837 134.71 23.952H136.71ZM137.285 21.0694C137.679 20.2415 138.202 19.6398 138.845 19.2236L137.759 17.5444C136.77 18.1842 136.013 19.0865 135.479 20.2106L137.285 21.0694ZM138.857 19.216C139.498 18.7883 140.231 18.568 141.086 18.568V16.568C139.861 16.568 138.738 16.8917 137.747 17.5519L138.857 19.216ZM141.086 18.568C141.816 18.568 142.428 18.7257 142.951 19.0172L143.925 17.2708C143.072 16.7943 142.116 16.568 141.086 16.568V18.568ZM142.966 19.0258C143.486 19.304 143.872 19.686 144.145 20.1843L145.899 19.2237C145.436 18.378 144.766 17.72 143.91 17.2622L142.966 19.0258ZM146.022 19.704V17.88H144.022V19.704H146.022ZM145.022 18.88H147.974V16.88H145.022V18.88ZM141.902 28.84C143.154 28.84 144.23 28.3896 144.99 27.4282L143.422 26.1878C143.094 26.6024 142.634 26.84 141.902 26.84V28.84ZM144.99 27.4282C145.722 26.5024 146.022 25.2842 146.022 23.904H144.022C144.022 25.0198 143.778 25.7376 143.422 26.1878L144.99 27.4282ZM146.022 23.904C146.022 22.4989 145.725 21.2614 144.99 20.3318L143.422 21.5722C143.775 22.0186 144.022 22.7491 144.022 23.904H146.022ZM144.99 20.3318C144.227 19.3662 143.14 18.92 141.878 18.92V20.92C142.632 20.92 143.097 21.1618 143.422 21.5722L144.99 20.3318ZM141.878 18.92C140.608 18.92 139.528 19.3989 138.761 20.3861L140.339 21.6139C140.692 21.1611 141.164 20.92 141.878 20.92V18.92ZM138.759 20.3886C138.033 21.3279 137.734 22.5574 137.734 23.952H139.734C139.734 22.8186 139.979 22.0801 140.341 21.6114L138.759 20.3886ZM137.734 23.952C137.734 25.3301 138.033 26.5471 138.773 27.4612L140.327 26.2028C139.979 25.7729 139.734 25.0699 139.734 23.952H137.734ZM138.782 27.4722C139.562 28.4083 140.648 28.84 141.902 28.84V26.84C141.14 26.84 140.658 26.5997 140.318 26.1918L138.782 27.4722ZM158.969 17.784L159.969 17.7928L159.975 17.0972L159.325 16.8495L158.969 17.784ZM158.945 20.52L158.569 21.4465L159.932 22.0004L159.945 20.5288L158.945 20.52ZM155.009 21.096L154.273 20.4194L154.268 20.4248L154.263 20.4304L155.009 21.096ZM154.217 30V31H155.217V30H154.217ZM151.241 30H150.241V31H151.241V30ZM151.049 17.88V16.88H149.914L150.057 18.006L151.049 17.88ZM153.857 17.88L154.851 17.7683L154.751 16.88H153.857V17.88ZM154.097 20.016L153.104 20.1277L155.03 20.3775L154.097 20.016ZM155.537 18.216L155.002 17.3715L155.002 17.3715L155.537 18.216ZM157.769 18.592C158.145 18.592 158.419 18.6443 158.613 18.7185L159.325 16.8495C158.848 16.6677 158.321 16.592 157.769 16.592V18.592ZM157.969 17.7752L157.945 20.5112L159.945 20.5288L159.969 17.7928L157.969 17.7752ZM159.322 19.5935C158.692 19.3378 158.036 19.208 157.361 19.208V21.208C157.774 21.208 158.175 21.2862 158.569 21.4465L159.322 19.5935ZM157.361 19.208C156.139 19.208 155.055 19.5681 154.273 20.4194L155.746 21.7726C156.051 21.4399 156.536 21.208 157.361 21.208V19.208ZM154.263 20.4304C153.536 21.2453 153.217 22.2855 153.217 23.448H155.217C155.217 22.6585 155.427 22.1307 155.756 21.7616L154.263 20.4304ZM153.217 23.448V30H155.217V23.448H153.217ZM154.217 29H151.241V31H154.217V29ZM152.241 30V21.312H150.241V30H152.241ZM152.241 21.312C152.241 20.0002 152.176 18.8129 152.041 17.754L150.057 18.006C150.179 18.9631 150.241 20.0638 150.241 21.312H152.241ZM151.049 18.88H153.857V16.88H151.049V18.88ZM152.864 17.9917L153.104 20.1277L155.091 19.9043L154.851 17.7683L152.864 17.9917ZM155.03 20.3775C155.263 19.7754 155.613 19.3524 156.073 19.0605L155.002 17.3715C154.15 17.9115 153.54 18.6886 153.165 19.6545L155.03 20.3775ZM156.073 19.0605C156.557 18.7534 157.113 18.592 157.769 18.592V16.592C156.762 16.592 155.829 16.8466 155.002 17.3715L156.073 19.0605Z" fill="black"/>
<circle cx="20.5" cy="20.5" r="20.5" fill="#458FF6"/>
<g filter="url(#filter0_d)">
<path d="M19.344 15.244H13.312V12.488H28.782V15.244H22.724V31H19.344V15.244Z" fill="white"/>
<path d="M19.344 15.244H20.344V14.244H19.344V15.244ZM13.312 15.244H12.312V16.244H13.312V15.244ZM13.312 12.488V11.488H12.312V12.488H13.312ZM28.782 12.488H29.782V11.488H28.782V12.488ZM28.782 15.244V16.244H29.782V15.244H28.782ZM22.724 15.244V14.244H21.724V15.244H22.724ZM22.724 31V32H23.724V31H22.724ZM19.344 31H18.344V32H19.344V31ZM19.344 14.244H13.312V16.244H19.344V14.244ZM14.312 15.244V12.488H12.312V15.244H14.312ZM13.312 13.488H28.782V11.488H13.312V13.488ZM27.782 12.488V15.244H29.782V12.488H27.782ZM28.782 14.244H22.724V16.244H28.782V14.244ZM21.724 15.244V31H23.724V15.244H21.724ZM22.724 30H19.344V32H22.724V30ZM20.344 31V15.244H18.344V31H20.344Z" fill="black"/>
</g>
<defs>
<filter id="filter0_d" x="8.31201" y="11.488" width="25.47" height="28.512" filterUnits="userSpaceOnUse" color-interpolation-filters="sRGB">
<feFlood flood-opacity="0" result="BackgroundImageFix"/>
<feColorMatrix in="SourceAlpha" type="matrix" values="0 0 0 0 0 0 0 0 0 0 0 0 0 0 0 0 0 0 127 0"/>
<feOffset dy="4"/>
<feGaussianBlur stdDeviation="2"/>
<feColorMatrix type="matrix" values="0 0 0 0 0 0 0 0 0 0 0 0 0 0 0 0 0 0 0.25 0"/>
<feBlend mode="normal" in2="BackgroundImageFix" result="effect1_dropShadow"/>
<feBlend mode="normal" in="SourceGraphic" in2="effect1_dropShadow" result="shape"/>
</filter>
</defs>
</svg>
